<svg width="90" height="90" viewBox="0 0 90 90" fill="none" xmlns="http://www.w3.org/2000/svg">
<g clip-path="url(#clip0_2430_78)">
<rect width="90" height="90" transform="matrix(-1 0 0 1 90 0)" fill="#F3F3F3"/>
<path d="M31.3241 72.9565C29.1145 67.1513 29.2488 62.4856 29.5922 60.8784C27.0456 58.4809 26.0654 53.3259 25.8936 51.048L25.5 47.5L23.5 44V37L26.3148 33.3521L28.7492 28.7175L27.8596 23.287L31.3241 17.1074L50.3306 15.9824L59.1318 19.3071L61.4257 31.8061L66.0604 35.3172C66.8406 36.4096 68.1202 39.4557 66.9967 42.9012C65.8731 46.3468 64.1566 48.1755 63.4387 48.6591L62.9706 51.6099L59.1318 57.5079L59.4595 63.3598C60.3802 63.3754 61.9781 64.3429 61.0044 68.0881C60.0306 71.8332 54.1932 76.9577 51.3219 79.3764L46.5 80.5L41.5 88C38.9877 85.2535 33.5338 78.7617 31.3241 72.9565Z" fill="white"/>
<path d="M39.1025 46.6101C39.5195 46.5094 40.3923 46.4594 41.9136 47.3358C43.7652 48.4025 45.1818 47.0928 46.1238 46.9609C46.9481 46.8455 47.767 46.844 48.0173 46.9609" stroke="#0000EE" stroke-width="1.5" stroke-linecap="round" stroke-linejoin="round"/>
<path d="M29.4329 60.8574C27.9484 59.1948 26.187 54.8523 25.8901 51.7646C26.304 52.3337 26.537 53.1231 28.1246 54.0925C30.1051 55.3018 32.0076 54.9956 32.7371 54.6976L33.1497 52.7739C33.4027 51.5942 34.3597 50.8063 35.5329 50.5249C36.3453 50.3301 37.4194 49.9536 38.9281 49.1567C39.1656 49.0313 39.4437 49.0009 39.7008 49.0787L43.1932 50.1348L46.8887 49.0712C47.1426 48.9982 47.4137 49.0306 47.648 49.1526C48.2506 49.4664 49.1442 49.8639 50.6844 50.2032C51.544 50.3925 52.3527 50.8728 52.6891 51.6861C53.0363 52.5254 53.3426 53.7029 53.2681 55.2663C54.2237 55.0505 57.8632 54.6104 59.3921 54.0925C60.921 53.5746 62.4908 51.6999 63.0846 50.8273C63.1388 50.4589 63.1812 49.9409 63.215 49.3314C69.5445 41.9694 67.539 35.5298 65.9546 35.8054C63.6388 38.5963 63.619 39.6047 63.3815 40.6142C63.3815 35.3567 59.9942 32.2473 58.9875 29.0727C58.1821 26.5331 59.0565 22.3785 59.3921 21.0116C58.5347 20.1999 57.7398 19.5353 54.8299 18.3904C53.2554 17.7709 48.076 16.3212 44.8631 17.7423C40.5169 19.6647 39.4115 20.1908 37.3565 20.1908C38.7355 18.6838 37.0909 17.7777 36.7093 17.2122L36.1 17.9929C35.5182 18.7383 34.8226 19.3875 34.0387 19.9163L33.6318 20.1908C33.9099 18.5226 32.5283 18.2177 32.5283 18.2177C32.5283 18.2177 32.4406 17.7423 30.4751 20.4914C28.6735 23.0112 29.4669 25.2092 29.9339 26.9756C30.0123 27.2723 29.9367 27.5841 29.7556 27.8319C28.4171 29.6641 26.8413 32.9301 26.6311 33.6541C26.4052 34.4321 25.9794 40.3237 25.7947 43.0008C25.3197 39.8258 24.4651 29.5845 24.4176 27.4469C24.3582 24.7748 24.1915 24.345 26.2104 20.0103C28.2292 15.6757 29.5356 15.4975 31.0794 13.538C32.6233 11.5785 35.8891 7.11963 43.0146 6.40708C48.715 5.83704 52.9506 7.43632 54.3559 8.30721C59.5219 11.2762 61.4814 14.3093 63.3815 17.8127C65.2817 21.316 65.4797 22.5227 65.9547 26.9167C66.3348 30.432 66.113 34.2022 65.9546 35.8054C67.539 35.5298 69.5445 41.9694 63.215 49.3314C63.1812 49.9409 63.1388 50.4589 63.0846 50.8273C62.7877 52.8462 61.0064 56.112 58.9875 58.3684C56.9686 60.6248 50.8324 66.4202 48.6354 67.7266C46.4384 69.0329 41.9729 69.3297 39.5977 68.439C37.2226 67.5483 30.9174 62.52 29.4329 60.8574Z" fill="#0000EE"/>
<path d="M25.7947 43.2314C25.5968 45.3888 25.6526 49.2944 25.8901 51.7646M25.8901 51.7646C26.187 54.8523 27.9484 59.1948 29.4329 60.8574C30.9174 62.52 37.2226 67.5483 39.5977 68.439C41.9729 69.3297 46.4384 69.0329 48.6354 67.7266C50.8324 66.4202 56.9686 60.6248 58.9875 58.3684C61.0064 56.112 62.7877 52.8462 63.0846 50.8273M25.8901 51.7646C26.304 52.3337 26.537 53.1231 28.1246 54.0925C30.1051 55.3018 32.0076 54.9956 32.7371 54.6976L33.1497 52.7739C33.4027 51.5942 34.3597 50.8063 35.5329 50.5249C36.3453 50.3301 37.4194 49.9536 38.9281 49.1567C39.1656 49.0313 39.4437 49.0009 39.7008 49.0787L43.1932 50.1348L46.8887 49.0712C47.1426 48.9982 47.4137 49.0306 47.648 49.1526C48.2506 49.4664 49.1442 49.8639 50.6844 50.2032C51.544 50.3925 52.3527 50.8728 52.6891 51.6861C53.0363 52.5254 53.3426 53.7029 53.2681 55.2663C54.2237 55.0505 57.8632 54.6104 59.3921 54.0925C60.921 53.5746 62.4908 51.6999 63.0846 50.8273M63.0846 50.8273C63.1388 50.4589 63.1812 49.9409 63.215 49.3314M65.9546 35.8054C63.6388 38.5963 63.6191 39.6047 63.3815 40.6142C63.3815 35.3567 59.9942 32.2473 58.9875 29.0727C58.1821 26.5331 59.0565 22.3785 59.3921 21.0116C58.5347 20.1999 57.7398 19.5353 54.8299 18.3904C53.2554 17.7709 48.076 16.3212 44.8631 17.7423C40.5169 19.6647 39.4115 20.1908 37.3565 20.1908C38.7355 18.6838 37.0909 17.7777 36.7093 17.2122L36.1 17.9929C35.5182 18.7383 34.8226 19.3875 34.0387 19.9163L33.6318 20.1908C33.9099 18.5226 32.5283 18.2177 32.5283 18.2177C32.5283 18.2177 32.4406 17.7423 30.4751 20.4914C28.6735 23.0112 29.4669 25.2092 29.9339 26.9756C30.0123 27.2723 29.9367 27.5841 29.7556 27.8319C28.4171 29.6641 26.8413 32.9301 26.6311 33.6541C26.4052 34.4321 25.9794 40.3237 25.7947 43.0008C25.3197 39.8258 24.4651 29.5845 24.4176 27.4469C24.3582 24.7748 24.1915 24.345 26.2104 20.0103C28.2292 15.6757 29.5356 15.4975 31.0794 13.538C32.6233 11.5785 35.8891 7.11963 43.0146 6.40708C48.715 5.83704 52.9506 7.43632 54.3559 8.30721C59.5219 11.2762 61.4814 14.3093 63.3815 17.8127C65.2817 21.316 65.4797 22.5227 65.9547 26.9167C66.3348 30.432 66.113 34.2022 65.9546 35.8054ZM65.9546 35.8054C67.539 35.5298 69.5445 41.9694 63.215 49.3314M63.3815 43.5198C63.3431 45.4386 63.3216 47.409 63.215 49.3314" stroke="#0000EE" stroke-width="1.5" stroke-linecap="round" stroke-linejoin="round"/>
<path d="M56.1758 21.9601C57.682 21.2304 58.2901 19.903 58.2521 19.4082L59.5645 21.8047C57.465 22.2616 56.328 22.1505 56.1758 21.9601Z" fill="#0000EE" stroke="#0000EE" stroke-width="1.5" stroke-linecap="round" stroke-linejoin="round"/>
<path d="M34.0749 40.9585C34.8238 41.7332 34.4888 43.2718 33.3268 44.3951C32.1648 45.5185 30.6156 45.8011 29.8668 45.0264C29.1179 44.2517 28.7467 42.7105 29.9088 41.5872C31.0708 40.4639 33.326 40.1838 34.0749 40.9585Z" fill="#FED1D0"/>
<path d="M53.283 40.9585C52.5341 41.7332 52.8691 43.2718 54.0311 44.3951C55.1932 45.5185 56.7423 45.8011 57.4911 45.0264C58.24 44.2517 58.6112 42.7105 57.4491 41.5872C56.2871 40.4639 54.0319 40.1838 53.283 40.9585Z" fill="#FED1D0"/>
<path d="M39.7458 52.2965C39.1247 52.1176 38.4659 52.4901 38.8415 53.0162C39.5842 54.0564 41.4753 54.98 42.8924 55.4223C44.8366 56.0291 47.4355 55.4772 48.1608 54.1538C50.7163 49.4916 45.5626 52.0325 42.9796 52.4724C41.6535 52.6982 40.5276 52.5217 39.7458 52.2965Z" fill="#FED1D0"/>
<path d="M29.4609 60.9141C29.1822 62.4468 29.3207 67.956 31.7461 74.4386C34.1715 80.9212 39.5201 84.825 41.6633 87.4039C42.639 85.5569 46.0189 80.3619 46.5163 80.2023C49.2868 79.3137 49.8173 79.5892 50.9674 79.0664C52.1174 78.5437 60.3393 71.4076 61.3848 67.3825C61.6461 66.581 61.5834 64.5598 59.2416 62.887" stroke="#0000EE" stroke-width="1.5" stroke-linecap="round" stroke-linejoin="round"/>
<path d="M59.1895 58.3398V66.5442" stroke="#0000EE" stroke-width="1.5" stroke-linecap="round" stroke-linejoin="round"/>
<path d="M29.2625 60.4287H26.6233M26.6233 60.4287C24.0445 63.2687 18.5525 69.2184 19.0125 75.9094C21.2655 77.2613 22.7976 78.3333 29.1846 78.3333L28.5573 81.4697L41.6636 87.7656L50.9158 85.1921L51.6876 82.1244L54.0895 84.5574C55.2698 85.7531 56.6426 86.7419 58.1506 87.4827L61.0095 88.8871C62.2467 86.953 65.0022 82.3657 66.2986 77.7239C67.9191 71.9215 67.2395 69.7851 66.7691 68.7396C66.2986 67.6942 64.1031 66.7533 63.6849 66.2305C63.2668 65.7078 61.6986 59.9049 59.3463 60.1668M26.6233 60.4287C25.3687 60.2545 22.3889 60.0106 20.5071 60.4287C18.1548 60.9513 11.2024 60.4287 10.1047 60.4287C9.00694 60.4287 -3.36032 61.8115 -4.35352 61.8115" stroke="#0000EE" stroke-width="1.5" stroke-linecap="round" stroke-linejoin="round"/>
<path d="M10.1173 60.4316C6.8071 60.4318 -0.898776 61.4874 -3.90771 62.2712L-0.579499 91.9269L28.4307 99.1821L83.3763 108.514L93 87C87.8474 83.3004 73.8191 73.6323 72.0755 72.3716C70.3319 71.1108 67.9959 70.5273 67.0458 70.3932C67.3076 70.6316 67.6241 72.1052 66.7966 76.0923C65.9691 80.0793 62.5651 86.6555 60.9665 89.4451C55.8511 87.414 52.8169 84.3359 51.9393 83.0508L50.9049 85.5897L41.3134 87.9406L28.4307 81.6403L28.9949 78.7252C23.052 79.1766 19.7482 77.158 18.8392 76.0923C19.742 69.1714 21.1534 66.5254 26.0799 60.765C22.005 60.7649 13.4275 60.4315 10.1173 60.4316Z" fill="#0000EE"/>
<path d="M41.5432 88.4023L41.5427 93.9614" stroke="#0000EE" stroke-width="1.5" stroke-linecap="round" stroke-linejoin="round"/>
<path d="M67.1753 69.8613C68.0989 70.1751 70.6329 70.9943 72.1802 72.1652C73.7274 73.336 85.3656 82.1785 90.5581 85.6634" stroke="#0000EE" stroke-width="1.5" stroke-linecap="round" stroke-linejoin="round"/>
<path d="M34.6099 34.1128L30.4196 34.6805C30.0901 34.7252 29.7969 34.469 29.7969 34.1365C29.7969 33.9018 29.9461 33.693 30.1682 33.617L33.9946 32.3085C34.1548 32.2537 34.3214 32.2195 34.4902 32.2066L38.3359 31.9143C39.2749 31.843 40.0605 32.6177 40.0022 33.5576C39.976 33.98 39.6161 34.3034 39.1934 34.2846L34.9673 34.0966C34.848 34.0913 34.7283 34.0967 34.6099 34.1128Z" fill="#0000EE"/>
<path d="M53.2398 34.142L57.3843 34.9122C57.7112 34.9729 58.0166 34.7314 58.0329 34.3994C58.0444 34.1649 57.9056 33.9491 57.6875 33.8623L53.9484 32.375C53.7789 32.3076 53.6009 32.2637 53.4195 32.2445L49.1737 31.7955C48.2402 31.6968 47.43 32.4354 47.4421 33.374C47.4476 33.8053 47.8008 34.151 48.2321 34.1474L52.8575 34.1084C52.9857 34.1073 53.1137 34.1186 53.2398 34.142Z" fill="#0000EE"/>
<ellipse cx="1.33818" cy="1.76482" rx="1.33818" ry="1.76482" transform="matrix(1 0 -0.0130506 -0.999915 34.4238 38.8027)" fill="#0000EE"/>
<ellipse cx="1.33818" cy="1.76482" rx="1.33818" ry="1.76482" transform="matrix(1 0 -0.0130506 -0.999915 50.7109 38.8027)" fill="#0000EE"/>
<path d="M24.4419 35.3262C22.6453 36.7571 22.5237 43.8567 25.3929 47.7511" stroke="#0000EE" stroke-width="1.5" stroke-linecap="round" stroke-linejoin="round"/>
<path opacity="0.2" d="M38.3489 72.339L29.3179 61.9293L38.6185 67.7245L44.4124 68.9442L49.2915 67.7245L59.0496 59.0332L51.059 71.6224C49.9583 73.3565 48.0471 74.4071 45.9932 74.4071H42.881C41.142 74.4071 39.4885 73.6526 38.3489 72.339Z" fill="#0000EE"/>
</g>
<defs>
<clipPath id="clip0_2430_78">
<rect width="90" height="90" fill="white" transform="matrix(-1 0 0 1 90 0)"/>
</clipPath>
</defs>
</svg>
